<?xml version="1.0" encoding="utf-8"?>
<!-- Generator: Adobe Illustrator 19.2.1, SVG Export Plug-In . SVG Version: 6.00 Build 0)  -->
<svg version="1.1" id="layer" xmlns="http://www.w3.org/2000/svg" xmlns:xlink="http://www.w3.org/1999/xlink" x="0px" y="0px"
	 viewBox="0 0 652 652" style="enable-background:new 0 0 652 652;" xml:space="preserve">
<style type="text/css">
	.st0{fill:#FF3F52;}
</style>
<path class="st0" d="M576.9,252.7v234.5c0,25.6-21.6,46.4-47.8,45.7c-25.3-0.7-45.2-21.8-45.2-46.7V252.7c0-3.7,3.1-6.8,6.9-6.8
	h18.9c3.8,0,6.9,3,6.9,6.8v233.9c0,7,5.8,13.6,12.9,14.1c8,0.5,14.7-5.8,14.7-13.5V252.7c0-3.7,3.1-6.8,6.9-6.8h18.9
	C573.9,245.9,577,248.9,576.9,252.7L576.9,252.7L576.9,252.7z M159.2,417.2H83.9c-3.8,0-6.9,3-6.9,6.8v18.7c0,3.7,3.1,6.8,6.9,6.8
	h21.6v119.7c0,3.8,3.1,6.8,6.9,6.8h18.2c3.8,0,6.9-3,6.9-6.8V449.5h21.6c3.8,0,6.9-3,6.9-6.8V424C166.1,420.3,163,417.2,159.2,417.2
	L159.2,417.2L159.2,417.2z M475.2,325.9c0,45.2-37.4,81.9-83.3,81.9h-1.1c-45.9,0-83.3-36.7-83.3-81.9c0-45.1,37.4-81.9,83.3-81.9
	h1.1C437.8,244.1,475.2,280.8,475.2,325.9z M443.1,325.9c0-27.7-23-50.3-51.2-50.3h-1.1c-28.2,0-51.2,22.6-51.2,50.3
	c0,27.8,23,50.3,51.2,50.3h1.1C420.1,376.3,443.1,353.7,443.1,325.9z M570,543.9h-79.2c-3.8,0-6.9,3-6.9,6.8v18.6
	c0,3.8,3.1,6.8,6.9,6.8H570c3.8,0,6.9-3,6.9-6.8v-18.6C576.9,546.9,573.9,543.9,570,543.9z M83.9,234.7h37.6c3.8,0,6.9-3,6.9-6.8
	v-18.6c0-3.7-3.1-6.8-6.9-6.8h-11.8V82.8c0-3.8-3.1-6.8-6.9-6.8H83.9c-3.8,0-6.9,3-6.9,6.8v145.1C77,231.6,80.1,234.7,83.9,234.7
	C83.9,234.7,83.9,234.7,83.9,234.7z M516.6,108.1H570c3.8,0,6.9-3,6.9-6.8V82.8c0-3.8-3.1-6.8-6.9-6.8h-79.2c-3.8,0-6.9,3-6.9,6.8
	v145.1c0,3.7,3.1,6.8,6.9,6.8H570c3.8,0,6.9-3,6.9-6.8v-18.6c0-3.7-3.1-6.8-6.9-6.8h-53.4v-31.1h50.9c3.8,0,6.9-3,6.9-6.8v-18.6
	c0-3.7-3.1-6.8-6.9-6.8h-50.9C516.6,139.3,516.6,108.1,516.6,108.1z M137.6,226l44.7-145.1c0.9-2.9,3.7-4.9,6.7-4.9h23.8
	c2.9,0,5.5,1.8,6.5,4.6l51.1,145c1.6,4.5-1.8,9.2-6.7,9.2H244c-2.9,0-5.5-1.8-6.5-4.6l-6.9-19.6c-1-2.8-3.7-4.7-6.7-4.6h-40.8
	c-3.1,0-5.8,2-6.7,4.9l-5.9,19.1c-0.9,2.9-3.6,4.8-6.6,4.8h-19.7C139.5,234.8,136.2,230.4,137.6,226L137.6,226L137.6,226z
	 M187.8,173.9h29.8l-13.9-39.5c-0.6-1.8-3.2-1.7-3.7,0.1L187.8,173.9L187.8,173.9z M280.5,227.9v-145c0-3.7,3.1-6.8,6.9-6.8h127.1
	c31.5,0,58.6,25.3,58.8,56.2c0.1,21.3-11.9,40-29.6,49.7l27.6,42.2c3,4.5-0.3,10.5-5.8,10.5h-22.5c-2.3,0-4.5-1.2-5.8-3.1
	l-27.8-42.3h-89.5c-3.8,0-6.9,3-6.9,6.8v31.9c0,3.7-3.1,6.8-6.9,6.8h-18.9C283.5,234.7,280.4,231.6,280.5,227.9L280.5,227.9
	L280.5,227.9z M313.1,157.1h102.6c14.9,0,26.8-13,24.6-28.1c-1.8-12.1-13-20.8-25.5-20.8H313.1L313.1,157.1L313.1,157.1z M77,399.2
	V252.7c0-3.7,3.1-6.8,6.9-6.8h133.5c45.7,0,82.8,37.2,81.4,82.5c-1.3,43.5-38.8,77.6-83.2,77.6H83.9C80.1,406,77,403,77,399.2
	L77,399.2z M109,374.5h107.1c26.8,0,49.6-20.4,50.6-46.7c1.1-27.6-21.5-50.4-49.4-50.4H109L109,374.5L109,374.5z M209.4,449.4h256.8
	c3.8,0,6.9-3,6.9-6.8v-18.6c0-3.8-3.1-6.8-6.9-6.8H183.7c-3.8,0-6.9,3-6.9,6.8v145.1c0,3.8,3.1,6.8,6.9,6.8h282.6
	c3.8,0,6.9-3,6.9-6.8v-18.6c0-3.8-3.1-6.8-6.9-6.8H209.4v-31.1h254.4c3.8,0,6.9-3,6.9-6.8v-18.6c0-3.8-3.1-6.8-6.9-6.8H209.4
	L209.4,449.4L209.4,449.4L209.4,449.4z"/>
</svg>
